<svg width="50" height="52" viewBox="0 0 50 52" fill="none" xmlns="http://www.w3.org/2000/svg">
<rect y="2" width="50" height="50" rx="10" fill="#D9D9D9"/>
<path d="M17.8594 13.25H37.6406C38.5156 13.2812 39.2344 13.6094 39.7969 14.2344C40.3906 14.8594 40.6875 15.6094 40.6875 16.4844C40.5312 18.3594 39.5156 19.375 37.6406 19.5312H19.4531C18.2656 19.5938 17.2812 20.0469 16.5 20.8906C15.7188 21.7344 15.1406 22.7031 14.7656 23.7969C14.4219 24.8594 14.25 25.9531 14.25 27.0781C14.25 28.2031 14.4219 29.3125 14.7656 30.4062C15.1406 31.4688 15.7188 32.4219 16.5 33.2656C17.2812 34.1094 18.2656 34.5625 19.4531 34.625H33.7031C34.2656 34.5938 34.5625 34.2812 34.5938 33.6875V30.9688C34.5625 30.3438 34.2656 30.0312 33.7031 30.0312H21.7031C20.8281 30.0312 20.0781 29.7344 19.4531 29.1406C18.8594 28.5156 18.5625 27.7656 18.5625 26.8906C18.5625 26.0156 18.8594 25.2656 19.4531 24.6406C20.0781 24.0469 20.8281 23.75 21.7031 23.75H37.7344C38.6094 23.75 39.3594 24.0469 39.9844 24.6406C40.5469 25.2344 40.8438 25.9531 40.875 26.7969V26.8906V37.8594C40.8438 38.7031 40.5469 39.4062 39.9844 39.9688C39.3906 40.5625 38.6719 40.875 37.8281 40.9062H17.8594C15.6719 40.7812 13.8594 39.9531 12.4219 38.4219C11.0156 36.8594 10 35.0938 9.375 33.125C8.78125 31.1562 8.48438 29.1406 8.48438 27.0781C8.48438 25.0156 8.79688 23 9.42188 21.0312C10.0469 19.0625 11.0625 17.3125 12.4688 15.7812C13.875 14.2187 15.6719 13.375 17.8594 13.25Z" fill="#512DA8"/>
</svg>
